# xmcd CD database file
#
# Track frame offsets:
#	150
#	17455
#	33135
#	47810
#	77470
#	93162
#	115192
#	132602
#	164857
#	180657
#
# Disc length: 2649 seconds
#
# Revision: 0
# Processed by: cddbd v1.5.1PL0 Copyright (c) Steve Scherf et al.
# Submitted via: CDex 1.51
#
DISCID=770a570a
DTITLE=Corey Osborn - Corey Osborn
DYEAR=1900
DGENRE=Blues
TTITLE0=Blues Highway
TTITLE1=Evening Star
TTITLE2=Sugar Sweet
TTITLE3=As the Years Go Pasing By
TTITLE4=My Bel Air
TTITLE5=I Just Want to Make Love to You
TTITLE6=Spare Notes
TTITLE7=Don't Answer the Door
TTITLE8=Wild About You
TTITLE9=37 Days
EXTD=
EXTT0=
EXTT1=
EXTT2=
EXTT3=
EXTT4=
EXTT5=
EXTT6=
EXTT7=
EXTT8=
EXTT9=
PLAYORDER=
